<?xml version="1.0" ?><svg style="enable-background:new 0 0 64 64;" version="1.1" viewBox="0 0 64 64" xml:space="preserve" xmlns="http://www.w3.org/2000/svg" xmlns:xlink="http://www.w3.org/1999/xlink"><style type="text/css">
	.st0{fill:none;stroke:#000000;stroke-width:2;stroke-linecap:round;stroke-linejoin:round;stroke-miterlimit:10;}
	.st1{fill:none;stroke:#000000;stroke-width:2;stroke-linecap:round;stroke-linejoin:round;}
</style><g id="guides"/><g id="_x32_5._checking"/><g id="_x32_4._faucet"/><g id="_x32_3._drink"/><g id="_x32_2._hotel_key"/><g id="_x32_1._rating"/><g id="_x32_0._map"/><g id="_x31_9._wifi"/><g id="_x31_8._swimming_pool"/><g id="_x31_7._booking"><path class="st0" d="M27,49H10c-1.1045694,0-2-0.8954315-2-2V19c0-1.1045704,0.8954306-2,2-2h4.9997501"/><path class="st0" d="M28.9998512,17H34c1.1045685,0,2,0.8954296,2,2v18.0000687"/><path class="st0" d="M29,14c0,8-7,13-7,13s-7-5-7-13c0-3.8659935,3.1340065-7,7-7S29,10.1340065,29,14z"/><circle class="st0" cx="22" cy="14" r="2"/><path class="st0" d="M30.3786793,49.7426414l-2.1213207-2.1213226l-1.4142132,1.4142151   c-0.7810478,0.7810478-0.7810478,2.0473785,0,2.8284264l3.5355339,3.5355339c1.5620975,1.5620995,4.094759,1.5620995,5.6568546,0   l6.3639603-6.3639603c1.5620995-1.5620956,1.5620995-4.0947571,0-5.6568527l-4.9497452-4.949749l-1.0606613-1.0606613   c-0.5857887-0.5857849-1.5355339-0.5857849-2.1213188,0l-0.0000038,0.0000038c-0.5857849,0.5857849-0.5857849,1.5355301,0,2.121315   l1.0606613,1.0606613l-1.0606613-1.0606613c-0.5857849-0.5857849-1.5355301-0.5857849-2.1213188,0v0.0000038   c-0.5857868,0.5857849-0.5857868,1.5355339,0,2.1213188l1.0606613,1.0606613l-1.0606613-1.0606613   c-0.5857868-0.5857849-1.5355339-0.5857849-2.1213188,0h-0.0000019c-0.5857868,0.5857887-0.5857868,1.5355339,0,2.1213188   l1.0606613,1.0606613l-4.2426434-4.2426414c-0.7810478-0.7810478-2.0473747-0.7810478-2.8284225,0l-0.0000038,0.0000038   c-0.7810478,0.7810478-0.7810478,2.0473747,0,2.8284225l4.2426414,4.2426414L30.3786793,49.7426414z"/><line class="st0" x1="44" x2="56" y1="38" y2="38"/><line class="st0" x1="47" x2="56" y1="44" y2="44"/><line class="st0" x1="46" x2="56" y1="50" y2="50"/><rect class="st0" height="6" width="5" x="12" y="31"/><line class="st0" x1="12" x2="17" y1="40" y2="40"/><line class="st0" x1="12" x2="17" y1="43" y2="43"/></g><g id="_x31_6._pasport"/><g id="_x31_5._coffee_cup"/><g id="_x31_4._bathtub"/><g id="_x31_3._bedroom"/><g id="_x31_2._air_conditioner"/><g id="_x31_1._breakfast"/><g id="_x31_0._parking_lot"/><g id="_x39_._room_service"/><g id="_x38_._elevator"/><g id="_x37_._reception"/><g id="_x36_._relax"/><g id="_x35_._car_rental"/><g id="_x34_._rental"/><g id="_x33_._smoking_area"/><g id="_x32_._exercise"/><g id="_x31_._luggage"/></svg>